PathFileType	4	(X/Y/Z)	D:\TRACE\v60_Jaco2_6-2-23\JustBodyDRS_Motion3_1-platform.trc
DataRate	CameraRate	NumFrames	NumMarkers	Units	OrigDataRate	OrigDataStartFrame	OrigNumFrames
100.00	100.00	      29	5	mm	100.00	4376	      7000
Frame#	Time	Left_Front			Right_Front			Left_Aft			Right_Aft			Post			
		X1	Y1	Z1	X2	Y2	Z2	X3	Y3	Z3	X4	Y4	Z4	X5	Y5	Z5	

4376	43.750	-775.72406	-75.61964	-665.68164	795.03546	-76.40184	-642.92004	-706.91199	66.72948	459.56683	707.35077	74.71892	564.11853	22.23339	1172.07922	-1138.97375	
4377	43.760	-775.45807	-75.90667	-665.67426	795.33441	-76.37527	-642.70233	-706.78717	66.84189	459.55145	707.64154	74.92280	564.14679	22.31523	1171.96106	-1139.23767	
4378	43.770	-775.16589	-75.91595	-665.53015	795.48126	-76.43501	-642.76984	-706.67096	66.87865	459.54251	707.88159	75.02939	564.06268	22.46938	1171.90308	-1139.44385	
4379	43.780	-775.00317	-75.69531	-665.49884	795.59039	-76.52961	-642.90582	-706.55121	66.97926	459.49847	707.99683	75.06326	564.19531	22.67488	1171.80542	-1139.62061	
4380	43.790	-774.72247	-75.75517	-665.61023	795.73297	-76.57281	-642.93427	-706.29236	66.93786	459.51233	708.39972	75.34003	564.27618	22.76527	1171.70081	-1139.70325	
4381	43.800	-774.74750	-75.62803	-665.57141	795.91589	-76.77795	-642.89203	-706.18860	66.99813	459.50583	708.21454	75.25745	564.08868	22.82063	1171.59436	-1139.77344	
4382	43.810	-774.62128	-75.98334	-665.56598	796.19324	-77.03189	-642.82758	-706.09924	66.99183	459.54047	708.88098	75.85282	564.46277	22.58149	1171.29871	-1139.54041	
4383	43.820	-774.43079	-76.13672	-665.53906	796.29175	-76.96977	-642.87286	-705.99335	67.04543	459.53052	709.12421	75.92416	564.43945	22.75623	1171.19434	-1139.58362	
4384	43.830	-774.31006	-76.01801	-665.63354	796.44336	-76.96365	-642.94885	-706.01819	67.22580	459.44034	709.24017	75.88125	564.43658	22.94573	1171.00781	-1139.58862	
4385	43.840	-774.29510	-75.72903	-665.66718	796.51489	-77.00020	-642.93341	-705.97998	67.47017	459.01508	709.51501	75.88162	564.42657	23.00320	1171.01611	-1139.62854	
4386	43.850	-774.12469	-75.69535	-665.75732	796.69849	-77.05620	-642.97339	-705.64288	67.23653	459.33817	710.44800	76.20919	564.51764	23.37989	1171.45764	-1139.82825	
4387	43.860	-774.08441	-75.76910	-665.73920	796.82208	-76.94444	-642.98077	-705.36066	67.25620	459.30225	709.76221	75.85453	564.41992	23.50841	1171.52197	-1139.79773	
4388	43.870	-773.98029	-75.79439	-665.74701	796.91644	-76.87182	-642.97522	-705.28925	67.18420	459.31024	709.92004	75.82008	564.41345	23.71781	1171.58191	-1139.82288	
4389	43.880	-773.85034	-75.58299	-665.61621	797.02203	-76.88599	-642.93951	-705.00305	66.78089	459.64795	709.94580	75.66215	564.43927	23.89758	1171.74097	-1139.77319	
4390	43.890	-773.55396	-75.35262	-665.50433	797.16431	-76.76117	-642.89038	-704.88934	66.74139	459.69974	710.11310	75.66445	564.47919	24.06484	1171.86890	-1139.70093	
4391	43.900	-773.47565	-75.18875	-665.50433	797.25281	-76.55310	-642.90448	-704.80377	66.70835	459.70416	710.21832	75.63563	564.54303	24.10351	1172.11707	-1139.51697	
4392	43.910	-773.41492	-75.13835	-665.58069	797.40479	-76.24971	-642.95496	-704.73187	66.61989	459.70737	710.35602	75.50694	564.57294	24.23354	1172.31470	-1139.38403	
4393	43.920	-773.33380	-74.96386	-665.65894	797.54749	-76.11278	-642.91260	-704.57007	66.42551	459.72363	710.56201	75.36269	564.71075	24.11696	1172.57898	-1138.97668	
4394	43.930	-773.01660	-75.10088	-665.63318	797.62079	-75.96066	-642.94427	-704.43152	66.23009	459.88550	710.73877	75.16158	564.74359	24.34484	1172.73535	-1138.54871	
4395	43.940	-772.96075	-74.85552	-665.55450	797.63977	-75.73528	-642.95319	-704.39404	65.98534	459.98962	710.77881	75.00110	564.82635	24.93839	1173.16418	-1138.32117	
4396	43.950	-772.86011	-74.59623	-665.51227	797.71515	-75.49159	-642.88910	-704.20782	65.86610	460.04510	710.95605	74.78587	564.86737	24.97874	1173.50281	-1137.91370	
4397	43.960	-772.70251	-74.36546	-665.38312	798.03632	-75.15979	-642.63251	-704.11664	65.79885	460.11755	710.96149	74.59607	564.91809	25.01992	1174.02307	-1137.44824	
4398	43.970	-772.52795	-74.04353	-665.34857	798.15302	-74.92815	-642.64941	-704.03857	65.72081	460.16589	711.01923	74.47309	564.93665	25.05497	1174.45581	-1136.72009	
4399	43.980	-772.44391	-73.80225	-665.26715	798.25128	-74.69643	-642.58942	-703.92279	65.60818	460.22165	711.13739	74.29585	565.04749	24.67378	1174.93640	-1135.98975	
4400	43.990	-772.46191	-73.60989	-665.30505	798.31647	-74.47050	-642.56573	-703.81476	65.48796	460.34305	711.28888	74.14436	565.15820	25.46544	1175.35010	-1135.53772	
4401	44.000	-772.61438	-73.90944	-665.63989	798.48547	-74.25105	-642.53326	-703.63165	65.26583	460.42957	711.36237	73.88176	565.24915	25.48614	1175.65979	-1134.76343	
4402	44.010	-772.35120	-73.64512	-665.69904	798.52649	-74.06430	-642.62561	-703.54767	65.13168	460.52411	711.51624	73.69691	565.32574	25.45508	1176.17871	-1133.93896	
4403	44.020	-772.21466	-72.79851	-665.38928	798.73242	-73.68543	-642.61566	-703.40167	64.93308	460.62848	710.40253	72.37342	564.84473	25.18343	1176.73364	-1133.35645	
4404	44.030	-772.14850	-72.22955	-665.41669	798.85303	-73.40553	-642.58508	-703.45837	65.04118	460.57492	711.12946	72.66509	565.32336	25.53158	1177.39880	-1132.98059	
